<?xml version="1.0" standalone="no"?>
<!DOCTYPE svg PUBLIC "-//W3C//DTD SVG 20010904//EN"
 "http://www.w3.org/TR/2001/REC-SVG-20010904/DTD/svg10.dtd">
<svg version="1.0" xmlns="http://www.w3.org/2000/svg"
 width="300.000000pt" height="300.000000pt" viewBox="0 0 300.000000 300.000000"
 preserveAspectRatio="xMidYMid meet">
<metadata>
Created by potrace 1.10, written by Peter Selinger 2001-2011
</metadata>
<g transform="translate(0.000000,300.000000) scale(0.100000,-0.100000)"
fill="#000000" stroke="none">
<path d="M1335 2964 c-204 -31 -355 -78 -507 -155 -398 -205 -676 -571 -774
-1019 -15 -67 -19 -127 -19 -290 0 -178 3 -219 23 -309 66 -295 190 -520 401
-731 323 -322 724 -467 1185 -428 237 20 471 104 686 247 117 77 309 270 389
390 124 188 204 388 236 596 23 146 16 419 -13 546 -134 571 -553 992 -1122
1125 -85 21 -138 26 -280 29 -96 2 -188 1 -205 -1z m95 -47 c25 -54 109 -46
95 10 -5 20 -2 23 25 23 26 0 30 -4 30 -26 0 -15 -12 -38 -29 -55 -41 -40
-101 -40 -189 2 -36 17 -93 34 -126 38 l-61 7 85 12 c47 6 99 13 115 15 17 2
32 5 35 5 3 1 12 -13 20 -31z m39 26 c-3 -21 2 -33 16 -33 8 0 15 5 15 11 0 5
5 7 10 4 14 -9 -7 -35 -28 -35 -20 0 -52 29 -52 47 0 7 9 13 20 13 11 0 19 -3
19 -7z m312 -24 c125 -25 230 -60 356 -119 110 -52 162 -85 265 -168 64 -51
67 -55 53 -75 -8 -12 -15 -27 -15 -34 0 -20 38 -53 61 -53 12 0 23 8 26 20 7
25 11 25 33 -2 21 -27 19 -33 -20 -53 -58 -30 -125 21 -165 126 -45 117 -91
167 -177 190 -60 16 -148 -11 -191 -59 -18 -20 -18 -20 -42 4 -30 29 -45 30
-79 3 -36 -29 -41 -20 -14 28 23 41 20 73 -7 73 -10 0 -15 -10 -15 -32 0 -42
-10 -78 -21 -78 -4 0 -5 22 -2 50 5 47 4 51 -30 85 -28 28 -43 35 -74 35 -70
0 -111 -55 -78 -106 15 -23 15 -24 -12 -24 -44 0 -89 16 -128 46 l-36 27 38
13 c50 17 83 56 83 98 l0 34 48 -5 c26 -3 90 -13 143 -24z m-641 -25 c-74 -32
-130 -118 -130 -199 0 -18 -5 -21 -24 -18 -30 6 -66 -28 -66 -62 0 -14 -4 -25
-10 -25 -5 0 -10 9 -10 20 0 47 -41 93 -63 71 -6 -6 2 -23 22 -48 31 -37 40
-63 22 -63 -5 0 -12 9 -16 20 -10 33 -54 60 -97 60 -32 0 -47 -7 -74 -34 -41
-41 -44 -77 -9 -112 18 -18 32 -23 48 -19 19 5 18 3 -8 -20 -50 -44 -68 -52
-123 -59 l-52 -7 20 33 c11 18 20 46 20 61 0 32 -24 83 -42 89 -13 5 74 74
180 142 88 57 188 106 313 151 95 34 167 48 99 19z m216 -43 c34 -16 85 -46
113 -67 l52 -39 -31 -3 c-23 -3 -38 3 -58 24 -28 28 -81 64 -95 64 -4 0 8 -14
28 -31 36 -32 62 -69 48 -69 -4 0 -16 14 -25 31 -24 41 -97 73 -146 64 -76
-14 -119 -54 -126 -116 -2 -25 -10 -35 -36 -45 -18 -8 -34 -14 -36 -14 -2 0
-4 23 -4 50 0 59 28 122 65 146 78 51 150 52 251 5z m434 -37 c25 -24 34 -85
15 -103 -15 -15 -104 9 -98 25 3 9 -2 14 -15 14 -50 0 -54 71 -5 88 37 13 73
5 103 -24z m-487 -25 c12 -6 33 -21 47 -33 19 -16 18 -13 -5 13 -16 19 -23 30
-15 26 21 -11 60 -47 60 -55 0 -4 -27 -10 -59 -14 -33 -4 -90 -15 -128 -26
-37 -10 -70 -17 -72 -15 -2 3 2 21 10 41 23 60 106 92 162 63z m921 -73 c76
-32 135 -127 157 -256 5 -30 12 -66 15 -80 l6 -25 -25 23 c-19 18 -25 36 -29
86 -3 35 -11 72 -17 82 -9 15 -10 11 -6 -26 4 -25 2 -56 -4 -70 l-10 -25 -1
25 c0 20 -2 22 -10 10 -7 -11 -10 -1 -9 35 l1 50 14 -35 14 -35 -5 40 c-15
107 -135 169 -223 115 -30 -18 -38 -19 -68 -8 -19 6 -34 15 -34 19 0 12 62 61
95 75 39 17 98 17 139 0z m-529 -18 c169 -25 330 -89 485 -192 281 -188 465
-477 526 -826 31 -177 6 -429 -59 -600 -112 -297 -345 -553 -622 -684 -279
-133 -617 -153 -907 -56 -516 173 -864 677 -833 1210 18 326 146 605 378 826
282 268 643 381 1032 322z m270 -20 c11 -17 12 -24 3 -27 -7 -2 -14 1 -16 8
-2 6 -17 11 -32 11 -31 0 -48 15 -28 23 29 12 58 6 73 -15z m-950 -28 c3 -5
-3 -10 -14 -10 -12 0 -31 -10 -43 -22 -27 -27 -39 -6 -12 23 18 20 59 26 69 9z
m-177 -46 c12 -14 22 -29 22 -34 0 -5 -20 -23 -45 -40 -32 -22 -45 -27 -45
-16 0 12 -5 12 -29 3 -68 -25 -85 58 -21 101 43 29 85 24 118 -14z m1409 -18
c26 -28 33 -44 33 -76 0 -42 -9 -50 -30 -25 -7 9 -49 38 -92 65 l-79 48 23 17
c39 28 105 15 145 -29z m-1693 -38 c44 -62 -11 -139 -126 -177 -43 -14 -83
-37 -114 -64 -57 -50 -52 -40 34 71 44 57 69 82 79 78 46 -18 61 -17 82 5 27
29 27 44 -1 63 -22 16 -22 16 -3 31 27 19 31 19 49 -7z m1946 3 c0 -4 -5 -12
-11 -18 -14 -14 -1 -36 17 -29 8 3 14 1 14 -5 0 -16 -29 -22 -45 -9 -15 12
-21 61 -9 73 7 7 34 -2 34 -12z m-1986 -46 c9 -24 -27 -54 -58 -48 -29 6 -31
11 -15 33 8 11 12 12 16 3 8 -21 33 -15 33 7 0 24 15 27 24 5z m1981 -95 c28
0 51 7 70 22 l28 22 28 -35 c16 -19 53 -70 83 -114 139 -208 222 -442 242
-687 6 -77 5 -88 -9 -88 -23 0 -31 -18 -16 -37 11 -13 11 -15 -6 -12 -31 6
-27 60 5 76 17 9 20 13 8 13 -41 0 -64 -64 -33 -90 8 -7 24 -10 35 -7 17 4 20
0 20 -24 0 -24 -4 -29 -24 -29 -38 0 -56 10 -71 41 -23 44 -18 98 16 169 36
75 47 159 29 214 -26 79 -103 135 -186 136 -39 0 -40 1 -36 28 4 31 -16 54
-63 69 l-30 10 41 12 c45 12 70 34 59 51 -10 16 -25 12 -57 -15 -31 -26 -48
-32 -48 -16 0 5 9 13 20 16 27 8 50 55 50 99 0 49 -45 99 -88 99 -36 0 -72
-27 -72 -55 0 -28 -12 -21 -46 25 -21 29 -33 58 -37 95 l-6 53 26 -21 c17 -13
41 -20 68 -20z m-1872 -39 c-13 -11 -47 -20 -87 -24 -37 -4 -74 -11 -84 -17
-14 -9 -10 -10 18 -6 19 3 50 2 68 -2 32 -7 33 -8 15 -23 -13 -11 -29 -13 -58
-8 l-40 6 50 2 c43 2 46 4 23 11 -96 29 -211 -89 -179 -183 6 -17 18 -39 27
-48 14 -15 14 -23 3 -53 -7 -20 -16 -36 -19 -36 -10 0 -67 63 -80 89 -19 37
-15 112 9 159 25 49 72 86 143 114 53 20 198 49 208 40 3 -2 -5 -12 -17 -21z
m1973 -66 c28 -19 48 -69 40 -100 -8 -30 -40 -65 -60 -65 -19 0 -69 77 -53 83
9 4 9 7 0 18 -44 46 20 102 73 64z m-2066 -31 c0 -3 -13 -23 -29 -43 -15 -20
-43 -61 -61 -91 -19 -30 -35 -57 -37 -59 -9 -12 -32 39 -33 72 0 76 48 126
123 127 20 0 37 -3 37 -6z m-276 -49 c-27 -66 -13 -140 41 -211 24 -31 24 -32
5 -49 -23 -21 -26 -53 -7 -80 13 -16 14 -13 13 25 -1 42 23 75 41 56 4 -4 0
-12 -10 -17 -11 -7 -16 -17 -12 -29 3 -10 0 -29 -6 -43 l-12 -26 -38 22 c-28
16 -43 19 -55 12 -28 -18 -18 -30 31 -37 26 -4 53 -12 59 -18 8 -9 1 -10 -30
-5 -64 10 -108 -13 -129 -68 -15 -39 -15 -49 -3 -73 7 -16 25 -35 41 -44 25
-14 30 -13 58 3 l31 17 -7 -52 c-5 -38 -18 -68 -44 -103 l-36 -50 -3 30 c-6
63 -48 105 -107 105 -25 0 -26 1 -19 53 22 185 73 356 155 520 49 96 71 129
43 62z m2406 -195 c11 -20 4 -50 -11 -50 -5 0 -9 8 -9 19 0 10 -7 24 -15 31
-8 7 -15 19 -15 27 0 19 36 0 50 -27z m127 -91 c62 -30 98 -94 98 -175 0 -49
-7 -73 -37 -135 -21 -40 -53 -92 -72 -114 l-35 -40 -1 31 c0 18 7 38 17 45 21
18 73 89 73 101 0 5 -5 6 -12 2 -8 -5 -9 -2 -4 12 15 40 17 72 7 111 -14 51
-70 103 -110 103 -24 0 -31 6 -40 31 -6 18 -11 36 -11 40 0 17 84 9 127 -12z
m-23 -110 c32 -38 38 -61 33 -128 -3 -37 -11 -59 -26 -74 -19 -19 -23 -20 -31
-7 -5 8 -10 29 -10 45 0 26 -21 129 -36 178 -10 31 41 21 70 -14z m-2491 -18
c23 -9 23 -11 14 -59 -6 -29 -15 -48 -22 -46 -6 3 -16 -9 -22 -26 -22 -58 -93
-26 -93 41 0 30 33 77 64 89 28 11 31 12 59 1z m2509 -203 c-19 -16 -36 -27
-39 -24 -3 2 10 18 29 34 18 17 35 28 38 25 3 -2 -10 -18 -28 -35z m-2678 -38
c30 -11 56 -57 56 -101 0 -17 -16 -66 -35 -109 -27 -60 -35 -92 -36 -141 l-1
-64 -13 64 c-7 35 -16 94 -19 132 -6 59 -5 69 8 69 22 0 56 36 56 59 0 28 -28
53 -51 46 -16 -5 -19 -1 -19 24 0 33 11 38 54 21z m2744 -133 c16 -16 41 -30
64 -34 l38 -6 -6 -51 c-22 -181 -69 -338 -154 -511 -67 -136 -194 -309 -220
-299 -38 16 -62 15 -80 -1 -26 -24 -25 -51 1 -66 l21 -11 -20 -21 c-21 -20
-22 -20 -42 -2 -13 12 -20 31 -20 56 0 55 36 92 123 125 119 45 175 96 198
179 17 60 -5 139 -53 192 -20 21 -20 21 1 42 25 25 27 49 5 79 -21 30 -12 39
18 18 32 -22 81 -22 76 2 -2 12 -16 18 -47 22 -25 3 -46 11 -49 18 -3 9 2 10
21 3 40 -15 95 5 117 42 52 85 -10 180 -89 137 -16 -8 -18 -5 -13 43 4 37 14
63 36 93 l31 42 8 -32 c5 -17 20 -43 35 -59z m-2606 7 c-22 -15 -82 -101 -82
-117 0 -5 10 3 22 19 13 16 32 37 43 46 22 19 40 24 31 9 -4 -5 -2 -11 3 -13
5 -1 -8 -20 -30 -40 -47 -45 -51 -42 -8 7 17 19 27 35 21 35 -19 0 -61 -60
-68 -95 -17 -91 47 -185 125 -185 14 0 25 -11 34 -32 18 -42 4 -53 -56 -43
-76 13 -123 49 -152 117 -34 82 -7 181 81 305 l49 68 3 -34 c3 -24 -2 -37 -16
-47z m-134 43 c4 -21 -24 -57 -45 -57 -20 0 -16 24 8 38 17 11 18 16 8 29 -11
13 -10 15 6 12 11 -3 21 -12 23 -22z m162 -149 c0 -22 19 -116 36 -182 7 -28
6 -29 -22 -22 -16 4 -41 20 -56 37 -39 41 -40 114 -2 158 31 37 44 39 44 9z
m2566 -23 c35 -54 -17 -135 -85 -135 -16 0 -32 4 -35 9 -10 16 6 101 19 101 7
0 16 11 19 25 9 35 59 35 82 0z m-2674 -258 c39 -29 90 -47 129 -47 25 0 29
-4 29 -27 0 -33 26 -63 56 -63 13 0 26 -4 29 -10 3 -5 -3 -10 -15 -10 -30 0
-80 -28 -80 -45 0 -27 20 -26 59 6 22 17 45 28 51 24 8 -5 1 -14 -19 -26 -16
-10 -37 -33 -47 -50 -44 -87 70 -195 136 -129 11 11 20 30 20 43 0 19 4 17 34
-18 19 -22 37 -56 41 -75 3 -19 8 -48 12 -65 l5 -30 -25 23 c-38 36 -94 39
-138 9 l-35 -24 -61 81 c-104 140 -162 249 -223 423 -34 97 -38 125 -10 71 11
-20 35 -48 52 -61z m2538 18 c0 -24 -23 -55 -41 -55 -5 0 -9 5 -9 10 0 6 5 10
10 10 6 0 10 9 10 19 0 28 11 52 21 45 5 -3 9 -16 9 -29z m-2344 -72 c-4 -10
1 -23 14 -35 23 -22 26 -38 7 -38 -25 0 -50 37 -43 65 4 14 11 25 17 25 6 0 8
-7 5 -17z m2360 -90 c33 -77 2 -173 -74 -230 -47 -35 -144 -68 -232 -78 l-55
-6 30 25 c23 19 42 25 80 26 28 1 63 7 80 14 27 11 23 12 -38 8 -37 -2 -67 -1
-67 2 0 4 22 36 50 72 27 35 62 86 76 112 36 62 34 60 50 38 28 -38 11 -121
-31 -156 -9 -7 -37 -19 -63 -27 -45 -13 -45 -13 -8 -9 51 7 37 -6 -17 -15
l-42 -6 38 -2 c87 -3 157 65 157 150 0 32 -7 55 -21 74 -21 26 -21 28 -5 62
l17 36 31 -29 c17 -16 37 -43 44 -61z m-2254 -95 c17 -27 23 -45 17 -49 -7 -4
-6 -13 3 -28 24 -39 -13 -70 -68 -57 -27 7 -54 52 -54 91 0 25 47 85 67 85 4
0 20 -19 35 -42z m188 -277 c1 -31 7 -69 14 -86 12 -28 12 -26 8 31 -3 39 0
64 7 68 6 4 11 2 11 -4 0 -6 5 -8 10 -5 6 3 10 -4 11 -17 0 -13 3 -18 5 -11 4
8 28 -4 67 -34 34 -25 80 -54 101 -65 l39 -20 -31 -20 c-60 -38 -151 6 -172
83 -6 21 -13 39 -16 39 -4 0 -3 -12 1 -27 4 -16 3 -25 -1 -21 -4 4 -11 25 -15
45 -8 36 -8 35 -5 -11 4 -57 28 -92 82 -123 51 -30 93 -29 138 2 35 24 39 24
66 10 17 -9 30 -19 30 -24 0 -28 -107 -91 -155 -91 -61 0 -151 63 -185 130
-21 41 -45 132 -54 204 l-6 50 25 -24 c21 -19 25 -33 25 -79z m1781 23 c-28
-36 -28 -93 1 -129 l22 -28 -40 -34 c-56 -50 -188 -135 -270 -177 -77 -38
-295 -116 -323 -116 -9 1 0 7 20 14 86 30 139 101 139 185 0 41 1 43 25 37 30
-8 75 31 75 64 0 11 5 20 10 20 6 0 10 -11 10 -24 0 -33 32 -71 54 -63 15 6
14 11 -13 44 -31 37 -40 63 -22 63 5 0 13 -9 16 -21 8 -23 61 -59 88 -59 34 0
88 32 103 62 23 45 -6 108 -50 108 -17 0 -14 6 19 33 26 21 57 36 94 43 31 6
58 9 60 8 2 -2 -6 -15 -18 -30z m-1886 -14 c33 -20 61 -67 91 -153 10 -28 36
-68 61 -93 53 -56 28 -42 -74 37 -103 82 -99 77 -85 91 7 7 12 24 12 38 0 14
-5 31 -12 38 -18 18 -56 15 -67 -5 -9 -17 -11 -16 -30 1 -27 25 -26 32 7 50
37 21 59 20 97 -4z m2014 -19 c12 -8 13 -12 1 -26 -10 -12 -15 -13 -21 -4 -4
7 -14 9 -24 6 -9 -4 -13 -11 -10 -17 3 -5 2 -10 -4 -10 -17 0 -22 19 -11 40
11 21 45 26 69 11z m-2031 -33 c15 -15 16 -55 1 -64 -19 -11 -34 13 -19 31 11
14 10 17 -8 22 -12 3 -22 9 -22 14 0 13 34 11 48 -3z m1774 -25 c27 -24 22
-58 -13 -87 -40 -34 -91 -35 -124 -1 -14 13 -25 28 -25 34 0 17 63 55 86 53
13 -1 26 3 29 8 9 15 26 12 47 -7z m-232 -91 c0 -4 -7 -18 -16 -30 -16 -23
-58 -30 -69 -12 -3 6 2 10 13 10 10 0 27 9 37 20 18 20 35 26 35 12z m-1027
-46 c4 -9 18 -14 37 -14 41 1 48 -9 17 -23 -22 -10 -31 -9 -52 5 -14 9 -25 23
-25 31 0 19 16 19 23 1z m917 -41 c0 -48 -25 -108 -57 -137 -57 -52 -155 -61
-245 -24 -55 23 -177 104 -178 118 0 16 67 -6 95 -32 51 -46 107 -78 91 -51
-4 5 19 7 52 4 42 -4 67 -1 89 11 42 21 73 63 73 97 0 23 7 32 33 43 46 21 47
20 47 -29z m-932 5 c15 -24 59 -27 88 -5 31 23 35 17 13 -20 -23 -38 -22 -80
1 -80 9 0 16 11 18 30 4 48 12 75 21 75 5 0 6 -20 4 -44 -6 -52 7 -80 50 -106
64 -40 137 -10 137 55 0 19 -4 37 -10 40 -24 15 -6 21 43 15 40 -4 63 -14 96
-40 l43 -35 -28 -3 c-16 -2 -41 -12 -55 -23 -29 -21 -55 -81 -43 -100 5 -9 -9
-10 -57 -5 -168 19 -357 75 -508 150 -88 45 -119 66 -65 46 62 -24 165 0 208
49 24 26 28 26 44 1z m830 -30 c-25 -74 -125 -97 -194 -46 l-39 29 30 -32 c22
-24 25 -30 11 -25 -14 5 -17 4 -12 -4 4 -7 3 -12 -2 -12 -10 0 -72 66 -72 75
0 15 17 1 32 -25 9 -17 23 -30 29 -30 7 0 2 11 -11 25 -13 14 -22 27 -19 29 2
1 39 9 82 15 43 7 97 18 120 25 53 16 58 13 45 -24z m-605 10 c9 0 25 -9 34
-20 10 -11 23 -20 30 -20 16 0 32 -31 25 -50 -15 -49 -89 -55 -133 -11 -42 42
-39 119 5 107 11 -3 29 -6 39 -6z m378 -156 c28 -13 78 -31 112 -38 l62 -13
-50 -7 c-27 -4 -89 -10 -137 -14 -82 -7 -88 -7 -88 11 0 15 -5 18 -25 13 -27
-7 -32 3 -13 22 18 18 35 15 58 -10 11 -12 20 -17 20 -11 0 5 -9 18 -20 28
-17 15 -26 17 -48 9 -22 -8 -27 -15 -25 -43 1 -25 -2 -31 -14 -27 -8 3 -21 6
-29 6 -17 0 -18 33 -3 61 28 53 112 58 200 13z"/>
<path d="M1062 1993 c-35 -37 -62 -97 -62 -139 0 -15 -6 -12 -32 14 -94 90
-260 103 -404 32 -121 -59 -174 -180 -125 -285 21 -47 35 -59 117 -108 71 -43
128 -102 155 -161 24 -54 25 -140 1 -186 -20 -38 -89 -80 -132 -80 -23 0 -22
3 23 41 45 39 54 59 41 94 -8 20 -56 45 -88 45 -48 0 -90 -79 -50 -94 23 -9
24 -8 24 12 0 36 59 68 75 41 14 -21 -6 -57 -45 -83 -45 -29 -50 -50 -19 -66
55 -30 168 1 203 55 23 35 34 101 24 153 -17 100 -78 176 -196 247 -52 31 -72
50 -89 85 -30 57 -29 94 2 157 42 84 132 137 255 150 133 13 240 -52 240 -148
0 -32 -6 -41 -60 -83 -68 -52 -115 -119 -125 -176 -18 -108 71 -230 168 -230
l37 0 0 -60 c0 -61 -18 -121 -40 -135 -20 -13 -78 -9 -96 6 -16 13 -15 14 11
19 35 6 50 29 41 63 -17 68 -98 47 -104 -26 -6 -71 84 -119 150 -80 45 26 58
56 58 139 l0 70 35 17 c68 32 95 126 59 202 -14 30 -64 65 -93 65 -6 0 -11 19
-11 46 0 41 5 50 46 90 54 53 84 117 91 193 5 60 -13 131 -35 139 -7 2 -30
-14 -50 -35z m56 -55 c16 -16 15 -43 -4 -81 -17 -33 -73 -97 -85 -97 -3 0 -9
14 -13 31 -7 37 20 105 55 137 26 25 31 26 47 10z m-60 -206 c-24 -30 -155
-122 -176 -122 -2 0 26 30 64 68 49 47 77 68 97 69 26 2 28 1 15 -15z m-64
-133 c-1 -36 -5 -43 -31 -54 -78 -33 -93 -157 -23 -195 25 -14 25 -5 0 27 -27
34 -25 59 5 88 43 44 50 34 52 -70 l3 -95 -36 0 c-112 0 -175 133 -110 231 25
37 110 108 131 109 6 0 9 -19 9 -41z m51 -75 c18 -8 36 -22 39 -30 5 -12 1
-12 -24 1 -16 8 -38 15 -50 15 -20 0 -26 11 -13 23 9 9 10 9 48 -9z m6 -47
c45 -35 51 -101 13 -146 -42 -50 -49 -41 -51 64 -1 98 3 109 38 82z m-164
-312 c5 -15 -21 -44 -39 -45 -10 0 -10 44 -1 53 12 12 33 7 40 -8z"/>
<path d="M1225 1757 c-52 -18 -102 -43 -143 -74 -59 -44 -23 -43 61 2 199 106
397 73 468 -80 41 -88 11 -208 -61 -246 -58 -32 -102 -24 -125 22 -21 40 -19
57 14 90 32 32 71 38 91 14 10 -12 9 -15 -7 -15 -27 0 -43 -19 -43 -52 0 -26
3 -28 36 -28 26 0 43 7 59 24 l23 25 -37 40 c-34 36 -43 41 -83 41 -64 0 -98
-33 -98 -93 0 -75 55 -115 145 -105 90 11 139 77 139 188 0 107 -48 175 -158
226 -71 32 -214 43 -281 21z m330 -307 c8 -13 -13 -40 -31 -40 -17 0 -18 16
-1 35 15 17 24 18 32 5z"/>
<path d="M2538 1707 c-26 -30 -28 -31 -42 -14 -17 22 -54 19 -69 -5 -8 -12 -7
-21 2 -32 17 -20 44 -20 81 -1 40 21 39 2 -1 -38 -29 -28 -32 -29 -44 -14 -18
24 -62 22 -70 -3 -14 -45 31 -63 87 -34 29 15 30 15 24 -1 -3 -9 -9 -28 -12
-41 -3 -13 -9 -24 -11 -24 -3 0 -33 13 -67 30 -34 16 -85 32 -116 35 -30 2
-82 12 -115 21 -48 13 -66 14 -89 5 -43 -17 -18 -35 46 -33 l53 2 -39 -20
c-74 -38 -116 -92 -116 -150 0 -72 85 -94 126 -33 18 28 23 30 36 17 8 -8 30
-17 49 -20 81 -13 120 78 62 147 l-28 32 49 -6 c75 -11 142 -52 167 -104 12
-26 19 -53 15 -67 -9 -37 -44 -74 -74 -78 -36 -4 -36 -32 0 -36 20 -2 37 6 65
32 34 31 38 39 37 84 0 29 -8 62 -20 82 l-19 34 42 129 c24 71 43 131 43 133
0 15 -29 -1 -52 -29z m-253 -208 c34 -42 32 -88 -7 -107 -44 -21 -81 4 -102
71 -10 33 -26 17 -26 -28 0 -32 -6 -51 -20 -65 -37 -37 -69 -18 -56 34 14 56
103 125 163 126 12 0 33 -14 48 -31z"/>
<path d="M1931 1698 c-69 -10 -119 -42 -137 -84 -21 -50 -2 -87 71 -138 66
-46 89 -86 64 -111 -14 -14 -19 -12 -52 20 -48 46 -79 46 -124 -1 -19 -20 -36
-34 -39 -32 -4 5 16 108 31 157 7 19 5 22 -11 19 -26 -4 -54 -89 -51 -153 2
-48 3 -50 33 -53 26 -3 36 3 55 30 34 49 41 50 79 13 42 -41 80 -45 111 -14
16 16 20 28 15 52 -8 39 -19 52 -83 93 -30 19 -58 45 -63 59 -24 63 50 125
149 125 65 0 79 -37 35 -89 -29 -34 -25 -57 7 -40 25 13 59 68 59 95 0 44 -61
65 -149 52z"/>
<path d="M1205 1569 c-32 -18 -45 -40 -45 -76 0 -34 22 -55 50 -45 35 12 39
43 8 72 -16 15 -19 23 -11 31 19 19 61 1 79 -33 33 -63 -13 -151 -103 -194
-65 -32 -62 -44 4 -19 94 36 163 126 148 194 -12 56 -85 95 -130 70z"/>
<path d="M1109 1190 c-24 -16 -17 -37 17 -50 19 -8 34 -20 34 -27 0 -17 -27
-17 -33 0 -4 10 -6 10 -6 0 -1 -7 -6 -13 -12 -13 -6 0 -9 9 -6 20 4 15 0 20
-16 20 -12 0 -17 -4 -12 -8 6 -4 10 -14 10 -22 0 -12 16 -15 78 -17 73 -2 76
-1 67 17 -14 26 -13 40 4 40 17 0 27 -24 20 -47 -5 -14 -4 -15 4 -4 6 8 12 9
16 3 8 -13 164 -14 172 -1 4 6 11 6 19 -1 19 -15 56 -9 69 12 25 41 -23 92
-70 74 -14 -5 -9 -36 7 -36 4 0 6 7 3 15 -5 11 1 15 20 15 19 0 27 -6 32 -25
4 -15 1 -32 -6 -40 -18 -21 -51 -19 -57 5 -5 19 -6 19 -24 -3 -16 -19 -20 -20
-29 -7 -6 10 -10 11 -10 3 0 -22 -18 -14 -32 15 -11 21 -21 27 -51 29 -20 1
-37 -1 -37 -5 0 -5 15 -8 33 -8 26 1 33 -3 35 -21 2 -13 -1 -23 -7 -23 -6 0
-11 5 -11 12 0 9 -3 9 -12 0 -15 -15 -38 -16 -38 -1 0 6 -7 17 -15 25 -8 8
-12 21 -9 29 6 15 -24 35 -44 28 -17 -6 -36 -43 -22 -43 5 0 10 7 10 15 0 10
10 15 28 15 l27 0 -21 -18 c-22 -17 -42 -58 -24 -47 6 3 10 1 10 -4 0 -17 -26
-13 -41 5 -7 9 -22 20 -34 24 -17 7 -17 9 -2 9 9 1 17 6 17 11 0 7 -6 7 -19 1
-14 -8 -22 -7 -31 4 -9 11 -5 14 22 17 27 2 29 4 12 9 -12 4 -28 3 -35 -1z"/>
<path d="M1609 1193 c-19 -5 -27 -25 -25 -68 1 -25 6 -31 29 -33 16 -2 35 2
43 9 10 8 14 8 14 0 0 -18 70 -14 77 5 5 15 7 15 15 0 11 -19 49 -21 66 -4 10
10 15 10 20 1 4 -6 25 -11 46 -11 26 0 34 3 25 9 -8 4 -24 6 -35 3 -15 -4 -26
0 -33 13 -10 17 -12 17 -21 1 -16 -27 -46 -22 -70 12 -22 31 -64 43 -54 15 4
-8 12 -15 20 -15 8 0 14 -7 14 -15 0 -10 -9 -14 -27 -13 -38 2 -61 24 -57 53
2 27 -19 44 -47 38z m29 -29 c-9 -9 -21 -13 -27 -10 -20 13 -11 26 16 26 25 0
26 -1 11 -16z m-24 -26 c5 -10 7 -10 12 0 9 20 19 14 22 -14 2 -22 -2 -25 -26
-22 -20 2 -27 9 -28 26 -1 24 11 30 20 10z"/>
<path d="M1877 1189 c-23 -13 -22 -32 3 -54 20 -18 21 -18 14 0 -6 15 -4 17
14 13 17 -5 22 -2 22 13 0 24 -30 40 -53 28z"/>
<path d="M2281 1164 c-17 -17 -28 -21 -35 -14 -5 5 -28 10 -50 9 -23 0 -36 -3
-29 -5 7 -3 9 -13 5 -22 -5 -15 -4 -15 12 1 10 10 26 17 35 15 18 -4 29 -48
12 -48 -6 0 -11 8 -11 17 0 15 -1 15 -14 -2 -8 -11 -19 -16 -30 -12 -9 4 -16
2 -16 -3 0 -13 77 -13 85 0 4 6 13 5 24 -2 24 -15 49 -4 61 27 12 31 24 33 15
3 l-7 -23 17 23 c22 30 40 28 67 -8 37 -51 97 -28 72 28 -4 9 -6 23 -5 30 1 6
-3 12 -9 12 -6 0 -9 -4 -6 -9 3 -4 -6 -13 -19 -19 -14 -7 -25 -17 -25 -24 0
-8 -5 -6 -11 5 -11 19 -89 25 -89 6 0 -5 -5 -7 -10 -4 -6 4 -8 15 -5 26 8 25
-4 22 -34 -7z m36 -48 c-8 -21 -46 -21 -54 -1 -3 9 2 22 13 30 16 12 21 12 33
0 7 -7 11 -21 8 -29z m171 10 c-4 -25 -36 -34 -44 -12 -7 19 16 45 34 38 7 -2
12 -14 10 -26z"/>
<path d="M1392 1146 c16 -8 32 -17 37 -21 6 -3 9 4 8 15 -1 16 -8 20 -37 20
l-35 0 27 -14z"/>
<path d="M1785 1143 c2 -10 4 -20 4 -22 2 -7 31 22 31 30 0 5 -9 9 -19 9 -13
0 -18 -6 -16 -17z"/>
<path d="M1950 1150 c0 -5 15 -8 33 -7 26 2 33 -2 35 -20 2 -13 -1 -23 -7 -23
-6 0 -11 5 -11 12 0 9 -3 9 -12 0 -17 -17 -38 -15 -38 3 0 8 -4 15 -10 15 -5
0 -10 -4 -10 -9 0 -18 30 -32 62 -29 29 3 33 6 33 33 0 28 -3 30 -37 32 -21 1
-38 -2 -38 -7z"/>
<path d="M2077 1152 c-9 -17 -1 -56 13 -60 12 -4 13 -3 3 10 -15 17 -7 28 19
28 20 0 23 -21 8 -51 -6 -10 -7 -19 -3 -19 13 0 34 40 27 52 -4 5 0 14 7 19
11 7 9 9 -6 9 -14 0 -16 3 -7 9 8 5 0 8 -22 9 -19 1 -37 -2 -39 -6z"/>
<path d="M2381 1123 c-1 -16 -9 -23 -28 -26 l-28 -4 29 -2 c16 0 35 -9 43 -18
8 -10 12 -12 8 -5 -4 7 -1 20 6 28 10 12 9 13 -4 8 -11 -4 -17 2 -20 18 -4 22
-4 22 -6 1z"/>
</g>
</svg>
